<svg width="16" height="16" viewBox="0 0 16 16" fill="none" xmlns="http://www.w3.org/2000/svg">
<g id="bxs:offer">
<path id="Vector" d="M13.8315 7.99983L14.5675 6.72783C14.656 6.5748 14.6801 6.39289 14.6344 6.22212C14.5888 6.05135 14.4772 5.90569 14.3242 5.81717L13.0509 5.08117V3.6145C13.0509 3.43769 12.9806 3.26812 12.8556 3.1431C12.7306 3.01807 12.561 2.94783 12.3842 2.94783H10.9182L10.1829 1.67517C10.0941 1.52245 9.9487 1.41084 9.77821 1.3645C9.69366 1.34158 9.60539 1.33567 9.51853 1.34711C9.43167 1.35856 9.34795 1.38713 9.27221 1.43117L7.99888 2.16717L6.72555 1.4305C6.57243 1.3421 6.39046 1.31814 6.21968 1.3639C6.0489 1.40966 5.90329 1.52139 5.81488 1.6745L5.07888 2.94783H3.61288C3.43607 2.94783 3.2665 3.01807 3.14148 3.1431C3.01645 3.26812 2.94621 3.43769 2.94621 3.6145V5.0805L1.67288 5.8165C1.5969 5.86021 1.53031 5.91849 1.47692 5.98801C1.42354 6.05753 1.38442 6.13691 1.36181 6.22159C1.3392 6.30628 1.33354 6.3946 1.34516 6.48147C1.35679 6.56835 1.38547 6.65207 1.42955 6.72783L2.16555 7.99983L1.42955 9.27183C1.34154 9.42502 1.31766 9.60678 1.36312 9.7775C1.40858 9.94821 1.51968 10.094 1.67221 10.1832L2.94555 10.9192V12.3852C2.94555 12.562 3.01578 12.7315 3.14081 12.8566C3.26583 12.9816 3.4354 13.0518 3.61221 13.0518H5.07888L5.81488 14.3252C5.8739 14.4261 5.95817 14.5099 6.0594 14.5683C6.16063 14.6267 6.27533 14.6578 6.39221 14.6585C6.50821 14.6585 6.62355 14.6278 6.72621 14.5685L7.99821 13.8325L9.27155 14.5685C9.42463 14.6568 9.60647 14.6807 9.77719 14.6351C9.94791 14.5895 10.0936 14.478 10.1822 14.3252L10.9175 13.0518H12.3835C12.5604 13.0518 12.7299 12.9816 12.855 12.8566C12.98 12.7315 13.0502 12.562 13.0502 12.3852V10.9192L14.3235 10.1832C14.3994 10.1393 14.4659 10.081 14.5191 10.0115C14.5724 9.94192 14.6115 9.86257 14.6341 9.77793C14.6567 9.69329 14.6624 9.60503 14.6509 9.51819C14.6393 9.43136 14.6108 9.34764 14.5669 9.27183L13.8315 7.99983ZM6.33155 4.65983C6.59685 4.65992 6.85126 4.7654 7.03879 4.95306C7.22633 5.14072 7.33164 5.3952 7.33155 5.6605C7.33146 5.92581 7.22598 6.18021 7.03832 6.36775C6.85066 6.55528 6.59619 6.66059 6.33088 6.6605C6.06558 6.66041 5.81117 6.55494 5.62364 6.36727C5.4361 6.17961 5.33079 5.92514 5.33088 5.65983C5.33097 5.39453 5.43645 5.14013 5.62411 4.95259C5.81177 4.76505 6.06624 4.65975 6.33155 4.65983ZM6.53155 11.0598L5.46488 10.2605L9.46488 4.92717L10.5315 5.7265L6.53155 11.0598ZM9.66488 11.3265C9.53351 11.3265 9.40344 11.3005 9.28209 11.2502C9.16075 11.1999 9.05049 11.1262 8.95764 11.0333C8.86478 10.9404 8.79113 10.8301 8.7409 10.7087C8.69067 10.5873 8.66484 10.4572 8.66488 10.3258C8.66492 10.1945 8.69084 10.0644 8.74115 9.94305C8.79147 9.8217 8.86519 9.71145 8.95811 9.61859C9.05103 9.52573 9.16133 9.45208 9.28271 9.40185C9.40409 9.35162 9.53418 9.32579 9.66555 9.32583C9.93085 9.32592 10.1853 9.4314 10.3728 9.61906C10.5603 9.80672 10.6656 10.0612 10.6655 10.3265C10.6655 10.5918 10.56 10.8462 10.3723 11.0337C10.1847 11.2213 9.93019 11.3266 9.66488 11.3265Z" fill="#374BFE"/>
</g>
</svg>
