<svg width="15" height="15" viewBox="0 0 15 15" fill="none" xmlns="http://www.w3.org/2000/svg">
<g id="mdi:customer-service">
<path id="Vector" d="M11.7976 9.43596C12.0063 8.92894 12.1197 8.38613 12.1197 7.78964C12.1197 7.36017 12.054 6.94859 11.9407 6.56683C11.553 6.65631 11.1474 6.70403 10.7239 6.70403C9.85655 6.70496 9.00172 6.49735 8.23145 6.09872C7.46117 5.70008 6.79802 5.1221 6.2979 4.4135C5.76291 5.70799 4.75366 6.74924 3.4765 7.32438C3.45264 7.4735 3.45264 7.63455 3.45264 7.78964C3.45264 8.35912 3.56481 8.92302 3.78274 9.44914C4.00066 9.97527 4.32009 10.4533 4.72277 10.856C5.53602 11.6693 6.63902 12.1261 7.78913 12.1261C8.41545 12.1261 9.0179 11.9889 9.56071 11.7444C9.90071 12.3946 10.0558 12.7167 10.0439 12.7167C9.06562 13.0447 8.30808 13.2058 7.78913 13.2058C6.34562 13.2058 4.96773 12.6391 3.95369 11.6191C3.33692 11.0042 2.87844 10.249 2.61755 9.41806H1.82422V6.70403H2.47439C2.67138 5.74517 3.12427 4.85753 3.785 4.13529C4.44573 3.41305 5.28966 2.88314 6.22724 2.60181C7.16481 2.32048 8.16106 2.2982 9.11028 2.53736C10.0595 2.77651 10.9263 3.26817 11.6186 3.96017C12.3703 4.70891 12.8831 5.6638 13.0919 6.70403H13.754V9.41806H13.7183L11.5947 11.3686L8.43334 11.0107V10.0146H11.3144L11.7976 9.43596ZM6.16071 7.65245C6.33966 7.65245 6.51264 7.72403 6.6379 7.85525C6.76379 7.98217 6.83443 8.15369 6.83443 8.33245C6.83443 8.51121 6.76379 8.68272 6.6379 8.80964C6.51264 8.9349 6.33966 9.00648 6.16071 9.00648C5.78492 9.00648 5.48071 8.70824 5.48071 8.33245C5.48071 7.95666 5.78492 7.65245 6.16071 7.65245ZM9.41159 7.65245C9.78738 7.65245 10.0856 7.95666 10.0856 8.33245C10.0856 8.70824 9.78738 9.00648 9.41159 9.00648C9.0358 9.00648 8.73159 8.70824 8.73159 8.33245C8.73159 8.1521 8.80323 7.97914 8.93075 7.85161C9.05828 7.72409 9.23124 7.65245 9.41159 7.65245Z" fill="white"/>
</g>
</svg>
