<svg width="20" height="20" viewBox="0 0 20 20" fill="none" xmlns="http://www.w3.org/2000/svg">
<g id="typcn:tick">
<path id="Vector" d="M14.1433 5.20921C13.952 5.10275 13.7416 5.03505 13.5241 5.00998C13.3066 4.98491 13.0863 5.00296 12.8758 5.0631C12.6652 5.12323 12.4686 5.22428 12.2972 5.36045C12.1258 5.49663 11.9829 5.66526 11.8766 5.85671L8.78248 11.425L7.01164 9.65421C6.8579 9.49503 6.67399 9.36805 6.47065 9.28071C6.26731 9.19336 6.04861 9.14738 5.82731 9.14546C5.60601 9.14353 5.38655 9.1857 5.18172 9.26951C4.97689 9.35331 4.79081 9.47706 4.63432 9.63355C4.47783 9.79004 4.35408 9.97612 4.27027 10.181C4.18647 10.3858 4.1443 10.6052 4.14623 10.8265C4.14815 11.0478 4.19413 11.2665 4.28148 11.4699C4.36882 11.6732 4.49579 11.8571 4.65498 12.0109L7.98831 15.3442C8.30331 15.66 8.72831 15.8334 9.16664 15.8334L9.39748 15.8167C9.65294 15.781 9.89661 15.6864 10.1093 15.5405C10.322 15.3946 10.498 15.2013 10.6233 14.9759L14.79 7.47588C14.8964 7.28458 14.964 7.07421 14.9891 6.85678C15.0142 6.63934 14.9962 6.41909 14.9361 6.20861C14.8761 5.99812 14.7751 5.80153 14.6391 5.63005C14.5031 5.45858 14.3346 5.31557 14.1433 5.20921Z" fill="#00D566"/>
</g>
</svg>
